<svg xmlns="http://www.w3.org/2000/svg" version="1.0" width="300.000000pt" height="300.000000pt" viewBox="0 0 300.000000 300.000000" preserveAspectRatio="xMidYMid meet">
    <g transform="translate(0.000000,300.000000) scale(0.100000,-0.100000)" fill="#000000" stroke="none">
    <path d="M2420 1820 c-14 -5 -104 -33 -200 -64 -170 -54 -223 -77 -208 -92 4 -4 14 -2 21 4 14 12 141 62 156 62 6 0 6 -13 0 -32 -5 -18 -29 -123 -54 -233 -25 -110 -50 -201 -55 -203 -13 -5 -13 -62 0 -62 12 0 19 28 82 307 l53 232 128 37 c70 21 127 42 127 46 0 10 -17 9 -50 -2z"/>
    <path d="M1700 1723 c-34 -92 -111 -382 -113 -427 -2 -35 1 -41 20 -44 12 -2 61 17 109 42 48 25 96 46 105 46 10 0 21 5 24 10 15 25 -49 6 -137 -40 -53 -27 -99 -50 -102 -50 -13 0 -4 52 34 195 52 199 75 268 89 273 13 4 15 52 2 52 -5 0 -19 -26 -31 -57z"/>
    <path d="M565 1750 c-23 -11 -49 -33 -58 -49 -18 -31 -23 -101 -7 -101 6 0 10 18 10 41 0 31 6 47 29 70 54 54 59 41 34 -83 -13 -62 -26 -124 -29 -138 -2 -14 -11 -59 -19 -100 -26 -134 -30 -183 -14 -178 8 3 13 16 12 29 -1 13 8 75 19 137 20 110 21 113 52 126 18 7 49 28 70 46 33 29 39 32 60 20 47 -25 58 -87 27 -148 -35 -68 -113 -122 -176 -122 -14 0 -25 -5 -25 -11 0 -19 81 -1 130 29 108 67 142 204 64 257 l-30 20 18 30 c43 71 7 135 -79 142 -34 2 -60 -3 -88 -17z m150 -20 c19 -16 19 -63 0 -99 -10 -21 -24 -31 -52 -36 -21 -3 -49 -13 -62 -22 -23 -15 -24 -15 -18 13 4 16 12 60 18 98 l12 68 44 -5 c23 -2 50 -10 58 -17z m-53 -163 c-6 -7 -29 -23 -51 -35 -34 -19 -41 -21 -41 -8 0 9 17 24 38 35 44 24 70 28 54 8z"/>
    <path d="M1341 1691 c-6 -10 -21 -55 -34 -100 -18 -61 -26 -78 -35 -69 -14 14 -46 -12 -68 -54 -19 -36 -27 -35 -41 3 -10 25 -17 30 -33 26 -17 -4 -20 -2 -15 14 4 10 2 19 -3 19 -5 0 -14 -17 -20 -38 -7 -21 -21 -47 -31 -56 -19 -17 -20 -17 -31 4 -6 11 -10 35 -8 53 2 26 -1 33 -19 35 -17 3 -27 -8 -52 -55 -64 -118 -95 -137 -67 -40 22 77 21 91 -5 77 -28 -15 -31 -10 -17 28 14 36 6 51 -17 32 -25 -21 -37 -49 -30 -71 6 -17 13 -20 36 -17 24 4 29 2 24 -11 -4 -9 -9 -40 -12 -68 -5 -45 -3 -53 11 -53 9 0 29 18 45 40 15 21 32 36 36 32 4 -4 17 6 29 21 l23 29 6 -31 c7 -33 32 -42 56 -18 10 10 11 9 6 -5 -15 -39 12 -15 34 30 24 47 24 47 35 22 20 -46 26 -51 47 -40 15 9 19 7 19 -5 0 -24 26 -18 50 13 18 23 20 24 15 5 -10 -36 -25 -136 -25 -166 0 -19 4 -27 13 -24 7 2 11 16 9 34 -5 52 25 198 62 297 20 52 36 102 36 111 0 21 -17 19 -29 -4z m-347 -216 c-15 -20 -29 -34 -31 -31 -9 9 28 66 43 66 11 0 8 -9 -12 -35z m276 18 c-1 -23 -36 -70 -46 -60 -9 9 22 77 36 77 5 0 10 -8 10 -17z"/>
    <path d="M2221 1558 c-13 -13 -21 -33 -19 -48 3 -21 8 -25 34 -24 l30 2 -14 -55 c-23 -90 5 -113 53 -43 15 22 31 37 36 35 4 -3 17 4 28 16 l20 22 11 -28 c8 -22 15 -26 35 -23 17 4 25 0 28 -11 2 -9 12 3 24 32 23 50 38 59 48 28 3 -11 12 -25 20 -31 11 -9 19 -6 40 16 14 15 25 34 25 43 0 9 -11 3 -29 -19 l-30 -35 -12 33 c-9 26 -16 32 -30 29 -14 -4 -19 0 -19 15 0 27 -16 14 -23 -19 -6 -28 -45 -78 -54 -69 -12 12 -20 75 -10 85 7 7 5 12 -6 17 -29 11 -44 -2 -77 -65 -33 -62 -70 -105 -70 -81 0 6 7 39 16 72 8 33 13 62 10 65 -2 2 -16 -3 -30 -12 -30 -20 -31 -18 -10 24 22 43 5 62 -25 29z m170 -66 c-11 -20 -41 -48 -41 -39 0 18 25 57 37 57 10 0 11 -5 4 -18z"/>
    <path d="M1825 1538 c-21 -31 -37 -95 -30 -118 8 -26 45 -26 78 0 25 20 25 20 30 0 8 -33 48 -25 90 18 20 21 37 44 37 52 0 8 -20 -7 -45 -33 -51 -53 -61 -56 -70 -26 -5 15 2 34 24 64 17 24 31 49 31 55 0 21 -24 5 -45 -29 -33 -55 -91 -115 -103 -107 -21 13 -13 52 18 91 28 35 31 55 10 55 -5 0 -16 -10 -25 -22z"/>
    <path d="M1450 1515 c0 -17 -35 -55 -50 -55 -5 0 -10 8 -10 18 0 9 -4 23 -9 30 -7 12 -12 12 -30 0 -25 -15 -35 -40 -26 -68 7 -23 40 -27 52 -7 4 8 19 16 32 20 21 5 23 3 17 -24 -8 -44 7 -35 33 18 l23 48 17 -35 c9 -19 22 -35 30 -35 19 0 65 61 52 69 -6 4 -17 -7 -26 -24 -20 -38 -30 -38 -44 1 -8 25 -15 30 -31 26 -17 -4 -20 -2 -15 14 4 11 2 19 -4 19 -6 0 -11 -7 -11 -15z m-82 -45 c-1 -34 -28 -43 -28 -9 0 11 5 17 10 14 6 -3 10 1 10 9 0 9 2 16 4 16 3 0 4 -13 4 -30z"/>
    </g>
</svg>